<svg preserveAspectRatio="none" width="100%" height="100%" overflow="visible" style="display: block;" viewBox="0 0 24 24.55" fill="none" xmlns="http://www.w3.org/2000/svg">
<g id="dubizzle-Icon-logoi">
<path id="Fill 17" fill-rule="evenodd" clip-rule="evenodd" d="M14.6208 19.5108C14.6208 21.0666 13.3591 22.3262 11.8085 22.3262C10.2532 22.3262 8.99451 21.0666 8.99451 19.5108C8.99451 17.9592 10.2532 16.6999 11.8085 16.6999C13.3591 16.6999 14.6208 17.9592 14.6208 19.5108" fill="var(--fill-0, #17191C)"/>
<g id="Vector">
<path fill-rule="evenodd" clip-rule="evenodd" d="M10.2317 9.08798C11.7093 7.8594 13.9935 5.58358 13.9931 3.84783C13.9926 1.2072 12.5787 0 12.5787 0C12.5787 0 13.1939 2.086 8.38059 6.51453C4.23725 10.3269 4.82194 13.8029 4.8358 14.0277C4.96805 16.1644 5.84897 18.6406 7.40689 19.6759C6.79401 18.7404 6.43154 17.6194 6.39889 16.4334C6.401 16.0801 6.0874 12.5477 10.2317 9.08798Z" fill="#E00000"/>
<path fill-rule="evenodd" clip-rule="evenodd" d="M18.0852 16.7481C18.0025 14.6417 17.3295 14.4728 16.5484 12.6043C15.4434 9.60051 17.3305 7.032 15.2344 3.84192C14.5914 7.90845 11.5601 9.08935 9.35385 11.6957C7.62984 13.7326 7.16542 16.357 7.99818 18.1992C8.54411 16.6201 10.0457 15.4827 11.8089 15.4827C14.0309 15.4827 15.8385 17.2896 15.8385 19.5109C15.8385 20.3291 15.5931 21.0909 15.173 21.7273C17.093 21.0364 18.1642 18.7622 18.0852 16.7481Z" fill="#E00000"/>
</g>
</g>
</svg>
