<svg preserveAspectRatio="none" width="100%" height="100%" overflow="visible" style="display: block;" viewBox="0 0 13.33 13.33" fill="none" xmlns="http://www.w3.org/2000/svg">
<path id="Vector" d="M6.665 0.665C5.86935 1.46065 5.42236 2.53978 5.42236 3.665C5.42236 4.79022 5.86935 5.86935 6.665 6.665C7.46065 7.46065 8.53978 7.90764 9.665 7.90764C10.7902 7.90764 11.8694 7.46065 12.665 6.665C12.665 7.85169 12.3131 9.01173 11.6538 9.99842C10.9945 10.9851 10.0575 11.7542 8.9611 12.2083C7.86475 12.6624 6.65835 12.7812 5.49446 12.5497C4.33058 12.3182 3.26148 11.7468 2.42236 10.9076C1.58325 10.0685 1.0118 8.99943 0.780291 7.83554C0.54878 6.67166 0.6676 5.46526 1.12173 4.3689C1.57585 3.27254 2.34489 2.33547 3.33158 1.67618C4.31828 1.01689 5.47832 0.665 6.665 0.665Z" stroke="var(--stroke-0, #0F0F0F)" stroke-opacity="0.5" stroke-width="1.33" stroke-linecap="round" stroke-linejoin="round"/>
</svg>
