<svg preserveAspectRatio="none" width="100%" height="100%" overflow="visible" style="display: block;" viewBox="0 0 13.33 13.33" fill="none" xmlns="http://www.w3.org/2000/svg">
<path id="Vector" d="M8.665 2.665V10.665C8.665 11.0606 8.7823 11.4472 9.00206 11.7761C9.22182 12.105 9.53418 12.3614 9.89963 12.5128C10.2651 12.6641 10.6672 12.7037 11.0552 12.6266C11.4431 12.5494 11.7995 12.3589 12.0792 12.0792C12.3589 11.7995 12.5494 11.4431 12.6266 11.0552C12.7037 10.6672 12.6641 10.2651 12.5128 9.89963C12.3614 9.53418 12.105 9.22182 11.7761 9.00206C11.4472 8.7823 11.0606 8.665 10.665 8.665H2.665C2.26944 8.665 1.88276 8.7823 1.55386 9.00206C1.22496 9.22182 0.968617 9.53418 0.817242 9.89963C0.665867 10.2651 0.62626 10.6672 0.703431 11.0552C0.780601 11.4431 0.971083 11.7995 1.25079 12.0792C1.53049 12.3589 1.88686 12.5494 2.27482 12.6266C2.66278 12.7037 3.06492 12.6641 3.43037 12.5128C3.79582 12.3614 4.10818 12.105 4.32794 11.7761C4.5477 11.4472 4.665 11.0606 4.665 10.665V2.665C4.665 2.26944 4.5477 1.88276 4.32794 1.55386C4.10818 1.22496 3.79582 0.968617 3.43037 0.817242C3.06492 0.665867 2.66278 0.62626 2.27482 0.703431C1.88686 0.780601 1.53049 0.971083 1.25079 1.25079C0.971083 1.53049 0.780601 1.88686 0.703431 2.27482C0.62626 2.66278 0.665867 3.06492 0.817242 3.43037C0.968617 3.79582 1.22496 4.10818 1.55386 4.32794C1.88276 4.5477 2.26944 4.665 2.665 4.665H10.665C11.0606 4.665 11.4472 4.5477 11.7761 4.32794C12.105 4.10818 12.3614 3.79582 12.5128 3.43037C12.6641 3.06492 12.7037 2.66278 12.6266 2.27482C12.5494 1.88686 12.3589 1.53049 12.0792 1.25079C11.7995 0.971083 11.4431 0.780601 11.0552 0.703431C10.6672 0.62626 10.2651 0.665867 9.89963 0.817242C9.53418 0.968617 9.22182 1.22496 9.00206 1.55386C8.7823 1.88276 8.665 2.26944 8.665 2.665Z" stroke="var(--stroke-0, #525252)" stroke-width="1.33" stroke-linecap="round" stroke-linejoin="round"/>
</svg>
